<svg width="512" height="285" viewBox="0 0 512 285" fill="none" xmlns="http://www.w3.org/2000/svg">
<path d="M511.488 119.227C511.488 132.626 508.31 145.604 502.036 157.875C503.164 164.159 503.953 170.587 504.332 177.066C505.613 198.686 502.671 219.651 495.844 237.724C488.863 256.187 478.345 270.334 465.418 278.627C459.042 282.728 451.661 284.798 444.105 284.798C438.005 284.798 431.783 283.445 425.878 280.738C420.547 278.288 417.093 272.916 417.093 267.042C417.093 262.296 419.266 257.949 423.07 255.099C429.877 250.014 436.305 234.555 437.822 212.945C437.094 213.222 436.356 213.478 435.628 213.745C428.77 242.828 414.172 265.351 395.043 276.074C389.159 279.395 382.547 281.056 375.822 281.056C368.964 281.056 361.972 279.334 355.473 275.879C355.391 275.838 355.309 275.787 355.227 275.746C350.429 273.029 347.456 267.955 347.456 262.511C347.456 257.519 349.947 252.875 354.119 250.097C358.824 247.001 364.986 237.98 368.912 222.131C363.745 221.659 358.62 220.952 353.555 219.988C341.223 221.833 328.388 222.776 315.358 222.776C300.401 222.776 285.752 221.505 272.046 219.126C269.083 240.982 260.862 259.014 248.334 270.609C240.912 277.416 231.194 281.024 220.993 281.024C217.282 281.024 213.52 280.552 209.768 279.579C206.652 278.79 203.966 277.026 201.997 274.679C199.537 276.606 196.984 278.329 194.349 279.805C188.444 283.137 181.822 284.797 175.087 284.797C168.188 284.797 161.166 283.054 154.635 279.569C149.714 276.986 146.639 271.87 146.639 266.252C146.639 261.188 149.161 256.523 153.374 253.756C162.118 247.984 171.427 225.77 171.837 195.682C159.853 191.725 147.203 183.544 136.049 172.38C131.641 167.972 127.684 163.297 124.25 158.479C119.565 163.81 113.896 168.423 107.479 172.042C96.848 178.039 84.475 181.217 71.701 181.217C28.255 181.217 10.049 145.521 10.028 145.48C-3.02201 119.421 -3.25801 94.182 8.86999 79.625C13.042 74.633 18.383 71.25 24.749 69.568C25.918 69.26 32.766 70.337 40.167 69.424C46.646 68.614 52.981 67.22 58.404 64.749C64.616 61.961 70.05 58.178 73.802 53.483C78.917 47.096 80.506 39.869 80.701 39.316C82.577 34.6 86.052 30.151 91.086 26.081C99.841 18.977 113.393 13.297 130.39 9.576C142.138 -0.357998 158.059 -2.07999 169.386 4.99401C171.662 4.93201 173.999 4.891 176.367 4.891C200.591 4.891 223.401 8.45901 240.92 14.927H377.736C412.95 14.927 446.175 25.455 471.27 44.574C497.207 64.32 511.488 90.83 511.488 119.227ZM482.373 151.191C488.083 141.042 490.984 130.288 490.984 119.227C490.984 73.024 440.178 35.432 377.736 35.432C377.736 35.432 273.766 35.432 239.106 35.432C237.691 35.432 235.477 34.786 235.354 34.735C221.453 29.312 202.293 26.011 182.088 25.478C183.277 35.565 179.556 46.688 171.17 55.074C169.161 57.073 166.536 58.078 163.912 58.078C161.288 58.078 158.674 57.073 156.664 55.074C152.666 51.066 152.666 44.577 156.664 40.578C162.169 35.073 163.553 27.169 159.688 23.304C158.212 21.828 156.131 21.12 153.824 21.12C150.123 21.12 145.818 22.945 142.424 26.328C141.05 27.681 139.287 28.665 137.257 29.075C122.608 32.038 110.48 36.753 103.991 42.012C101.541 43.991 100.239 45.733 99.778 46.799C98.015 53.955 94.57 60.649 89.475 66.707C83.601 73.637 75.789 79.409 66.84 83.427C59.285 86.871 50.868 88.676 42.011 89.844C37.828 90.387 29.145 89.926 28.551 89.875C26.993 90.511 25.691 91.464 24.614 92.756C19.283 99.143 18.279 115.483 28.663 136.243C28.786 136.489 45.855 162.251 71.699 160.713C80.936 160.159 89.834 158.458 97.41 154.173C105.57 149.58 111.916 142.732 115.278 134.89C117.503 129.693 123.53 127.283 128.738 129.508C131.168 130.554 132.972 132.419 133.997 134.644C134.018 134.675 134.038 134.706 134.048 134.736C137.595 142.63 143.295 150.636 150.543 157.884C160.928 168.269 173.363 175.732 183.143 177.454C188.115 178.008 192.051 182.118 192.236 187.265C192.318 189.469 192.359 191.54 192.359 193.6C192.359 223.647 184.711 249.829 172.307 264.058C176.572 264.612 180.795 263.904 184.311 261.936C202.015 252.013 215.332 225.256 218.254 193.764C218.777 188.126 223.78 183.984 229.418 184.507C230.771 184.64 232.053 185.03 233.191 185.624V185.614C253.561 196.204 283.505 202.273 315.356 202.273C327.955 202.273 340.339 201.32 352.169 199.454C353.379 199.259 354.609 199.29 355.808 199.536C364.758 201.351 373.984 202.273 383.22 202.273C386.019 202.273 388.776 202.191 391.411 202.037C405.332 201.227 418.618 198.398 430.93 193.631C435.266 191.97 439.48 190.053 443.457 187.931C448.46 185.276 454.672 187.172 457.327 192.165C457.983 193.395 458.352 194.697 458.475 195.999L458.516 195.989C459.715 224.498 453.616 249.809 442.606 264.192C446.85 264.479 450.981 263.536 454.344 261.373C473.873 248.835 486.011 214.667 483.868 178.285C483.458 171.499 482.587 164.763 481.254 158.274H481.264C480.795 155.937 481.113 153.425 482.373 151.191ZM384.995 258.206C396.63 251.686 406.4 237.929 412.5 220.06C405.088 221.618 392.817 222.592 389.814 222.623C386.431 238.646 380.618 251.727 373.135 260.338C377.348 260.871 381.53 260.153 384.995 258.206ZM234.432 255.54C243.607 247.042 249.819 232.392 251.952 214.627C246.632 213.141 241.547 211.48 236.749 209.624C235.242 217.784 233.12 225.555 230.455 232.802C229.573 243.761 227.175 253.09 223.382 260.348C227.605 259.887 231.5 258.236 234.432 255.54Z" fill="black"/>
<path d="M442.085 82.906C446.585 86.33 447.457 92.768 444.033 97.268C442.013 99.923 438.959 101.307 435.863 101.307C433.7 101.307 431.516 100.63 429.661 99.216C416.642 89.303 397.718 83.613 377.737 83.613H283.496C277.837 83.613 273.245 79.02 273.245 73.362C273.245 67.704 277.838 63.111 283.496 63.111H377.737C402.115 63.11 425.57 70.327 442.085 82.906Z" fill="black"/>
<path d="M119.675 73.299C125.127 73.299 129.547 68.8792 129.547 63.427C129.547 57.9748 125.127 53.555 119.675 53.555C114.223 53.555 109.803 57.9748 109.803 63.427C109.803 68.8792 114.223 73.299 119.675 73.299Z" fill="black"/>
</svg>
