<svg width="511" height="269" viewBox="0 0 511 269" fill="none" xmlns="http://www.w3.org/2000/svg">
<path d="M476.753 59.492C497.262 65.147 511.537 83.975 511.474 105.251L511.411 121.566C511.379 135.232 500.205 146.364 486.518 146.364H334.262C334.378 147.741 334.451 149.139 334.451 150.558C334.451 156.361 329.742 161.07 323.939 161.07H259.416C248.641 161.07 239.233 155.131 234.261 146.364H197.679C197.795 147.741 197.868 149.139 197.868 150.558C197.868 156.361 193.159 161.07 187.356 161.07H122.833C119.7 161.07 116.683 160.555 113.856 159.63C107.591 166.726 104.09 175.861 104.09 185.5C104.09 207.071 121.645 224.626 143.216 224.626H146.906C159.142 224.626 169.097 234.581 169.097 246.817C169.097 258.885 159.279 268.84 147.211 268.997H147.001C107.654 268.766 70.726 253.292 43.005 225.425C15.274 197.547 0 160.502 0 121.124C0 108.047 2.313 95.264 6.875 83.123C8.357 79.149 12.131 71.339 12.163 71.286C12.195 71.233 12.216 71.181 12.247 71.139C30.958 35.282 67.698 13.007 108.117 13.007C108.233 13.007 309.339 13.007 309.339 13.007C316.792 5.081 327.252 0.47699 338.3 0.47699C357.411 0.47699 373.41 14.017 377.216 32.013L476.753 59.492ZM490.387 121.492C490.387 121.492 490.355 102.812 490.198 101.656L476.701 114.87C473.001 118.56 467.019 118.56 463.319 114.87L454.026 105.577L444.733 114.87C442.967 116.647 440.56 117.645 438.047 117.645C435.534 117.645 433.127 116.646 431.361 114.87L422.068 105.577L412.775 114.87C410.998 116.647 408.591 117.645 406.079 117.645C403.577 117.645 401.17 116.646 399.393 114.87L390.1 105.577L380.807 114.87C379.03 116.647 376.623 117.645 374.121 117.645C371.609 117.645 369.201 116.646 367.425 114.87L351.447 98.892C347.757 95.192 347.757 89.2 351.447 85.51C355.147 81.81 361.139 81.81 364.829 85.51L374.122 94.803L383.415 85.51C387.105 81.81 393.097 81.81 396.797 85.51L406.079 94.803L415.372 85.51C417.149 83.733 419.556 82.735 422.068 82.735C424.57 82.735 426.977 83.734 428.754 85.51L438.047 94.803L447.34 85.51C449.117 83.733 451.524 82.735 454.026 82.735C456.538 82.735 458.946 83.734 460.722 85.51L470.004 94.803C470.004 94.803 480.075 84.817 480.485 84.512C477.783 82.368 474.64 80.717 471.161 79.761L364.769 50.39C360.207 49.129 357.053 44.987 357.053 40.256C357.053 29.912 348.643 21.503 338.299 21.503C332.181 21.503 326.431 24.499 322.941 29.524C320.975 32.352 317.748 34.034 314.311 34.034H281.188L267.638 47.584C265.788 49.434 263.37 50.359 260.952 50.359C258.524 50.359 256.106 49.434 254.256 47.584C250.566 43.894 250.566 37.902 254.256 34.202L254.435 34.034H244.585L231.035 47.584C229.185 49.434 226.767 50.359 224.349 50.359C221.921 50.359 219.503 49.434 217.653 47.584C213.963 43.894 213.963 37.902 217.653 34.202L217.821 34.034H207.982L194.432 47.584C192.582 49.434 190.164 50.359 187.746 50.359C185.318 50.359 182.9 49.434 181.05 47.584C177.36 43.894 177.36 37.902 181.05 34.202L181.218 34.034H171.379L157.829 47.584C155.979 49.434 153.561 50.359 151.143 50.359C148.715 50.359 146.297 49.434 144.447 47.584C140.757 43.894 140.757 37.902 144.447 34.202L144.615 34.034H134.776L121.226 47.584C119.376 49.434 116.958 50.359 114.53 50.359C112.112 50.359 109.694 49.434 107.844 47.584C104.144 43.894 104.144 37.902 107.844 34.202L108.012 34.034C75.519 34.076 45.991 51.978 30.917 80.802C30.906 80.802 30.906 80.812 30.906 80.823C30.864 80.897 30.822 80.981 30.78 81.065C29.182 84.103 27.763 87.288 26.554 90.515C22.885 100.291 21.025 110.583 21.025 121.126C21.025 154.912 34.123 186.69 57.912 210.605C81.648 234.467 113.279 247.744 146.97 247.975C147.58 247.943 148.074 247.439 148.074 246.819C148.074 246.178 147.548 245.652 146.907 245.652H143.217C110.051 245.652 83.067 218.668 83.067 185.502C83.067 170.911 88.281 157.088 97.637 146.282C95.293 142.109 93.947 137.305 93.947 132.185V101.406C93.947 85.312 107.045 72.214 123.139 72.214C139.243 72.214 152.331 85.312 152.331 101.406V102.741C168.509 103.519 182.595 112.37 190.658 125.342H230.53V101.406C230.53 85.312 243.628 72.214 259.722 72.214C275.816 72.214 288.914 85.312 288.914 101.406V102.741C305.092 103.519 319.178 112.37 327.241 125.342H486.52C488.642 125.339 490.377 123.616 490.387 121.492ZM259.416 140.046H311.282C307.182 130.448 297.648 123.7 286.579 123.7H278.401C272.598 123.7 267.889 119.001 267.889 113.188V101.404C267.889 96.905 264.231 93.236 259.721 93.236C255.211 93.236 251.553 96.905 251.553 101.404V132.183C251.553 136.514 255.075 140.046 259.416 140.046ZM122.833 140.046H174.7C170.6 130.448 161.076 123.7 149.997 123.7H141.819C136.016 123.7 131.307 119.001 131.307 113.188V101.404C131.307 96.905 127.649 93.236 123.139 93.236C118.64 93.236 114.971 96.905 114.971 101.404V132.183C114.97 136.514 118.502 140.046 122.833 140.046Z" fill="black"/>
<path d="M338.299 28.198C344.964 28.198 350.356 33.601 350.356 40.255C350.356 46.92 344.963 52.312 338.299 52.312C331.645 52.312 326.242 46.919 326.242 40.255C326.242 33.601 331.645 28.198 338.299 28.198Z" fill="black"/>
</svg>
